<svg xmlns="http://www.w3.org/2000/svg" viewBox="0 0 1200 640" width="1200" height="640" role="img" aria-labelledby="t d">
<title id="t">Art &amp; Technology — Artech I/O</title>
<desc id="d">Art &amp;, set in italic serif inside a design-tool selection box with green handles and a Text label, above TECHNOLOGY in tall capitals that scramble into place. Beneath: Artech I/O, an independent design and engineering studio. Brand, interface and software, from first sketch to shipped product.</desc>
<style>
    .in { opacity: 0; animation: fadeup 1.0s cubic-bezier(.2,.8,.2,1) forwards; }
    @keyframes fadeup { from { opacity: 0; transform: translateY(10px); } to { opacity: 1; transform: none; } }
    .draw { stroke-dasharray: 1; stroke-dashoffset: 1; animation: draw 1.1s cubic-bezier(.2,.7,.2,1) forwards; }
    @keyframes draw { to { stroke-dashoffset: 0; } }
    .fade { opacity: 0; animation: fade .9s ease-out forwards; }
    @keyframes fade { to { opacity: 1; } }
    .caret { animation: blink 1.1s steps(1) infinite; }
    @keyframes blink { 50% { opacity: 0; } }
    .rl { fill: none; stroke: #2f8f45; stroke-width: 1; }
    .rl-t { fill: #2f8f45; }
    .rule { stroke: #cfd0cc; stroke-width: 1; fill: none; }
    @media (prefers-reduced-motion: reduce) {
      .in, .draw, .fade, .caret, .scan, .spin { animation: none !important; opacity: 1 !important; stroke-dashoffset: 0 !important; }
      .alt, .px, .knob { animation: none !important; }
    }
    </style>
<rect width="1200" height="640" fill="#f4f4f2"/>
<defs>
      <radialGradient id="hz" cx="600.0" cy="-160" r="760" gradientUnits="userSpaceOnUse">
        <stop offset="0" stop-color="#000000" stop-opacity="0.1"/>
        <stop offset=".55" stop-color="#000000" stop-opacity="0.03"/>
        <stop offset="1" stop-color="#000000" stop-opacity="0"/>
      </radialGradient>
    </defs>
    <g class="fade" style="animation-delay:.05s"><rect width="1200" height="640" fill="url(#hz)"/>
      <path d="M-40 150 Q 600.0 -90 1240 150" fill="none" stroke="#2f8f45" stroke-width="1" opacity=".35"/></g>
<defs><pattern id="dots" width="40" height="40" patternUnits="userSpaceOnUse">
      <circle cx="20.0" cy="20.0" r="0.9" fill="#0e0f0e" opacity="0.07"/></pattern></defs>
    <rect x="0" y="0" width="1200" height="640" fill="url(#dots)"/>
<path d="M24 36 V24 H36" fill="none" stroke="#7d7f7f" stroke-width="1" opacity="0.7"/><path d="M24 604 V616 H36" fill="none" stroke="#7d7f7f" stroke-width="1" opacity="0.7"/><path d="M1176 36 V24 H1164" fill="none" stroke="#7d7f7f" stroke-width="1" opacity="0.7"/><path d="M1176 604 V616 H1164" fill="none" stroke="#7d7f7f" stroke-width="1" opacity="0.7"/>
<g class="fade" fill="#7d7f7f" style="animation-delay:0.00s"><use href="#m30" transform="translate(56.00 52.00) scale(0.01150)"/><use href="#m47" transform="translate(65.30 52.00) scale(0.01150)"/><use href="#m49" transform="translate(74.60 52.00) scale(0.01150)"/><use href="#m34" transform="translate(83.90 52.00) scale(0.01150)"/><use href="#m32" transform="translate(93.20 52.00) scale(0.01150)"/><use href="#m37" transform="translate(102.50 52.00) scale(0.01150)"/><use href="#m38" transform="translate(121.10 52.00) scale(0.01150)"/><use href="#m102" transform="translate(130.40 52.00) scale(0.01150)"/><use href="#m44" transform="translate(139.70 52.00) scale(0.01150)"/></g>
<g class="fade" fill="#2f8f45" style="animation-delay:0.00s"><use href="#m30" transform="translate(1034.80 52.00) scale(0.01150)"/><use href="#m47" transform="translate(1044.10 52.00) scale(0.01150)"/><use href="#m49" transform="translate(1053.40 52.00) scale(0.01150)"/><use href="#m34" transform="translate(1062.70 52.00) scale(0.01150)"/><use href="#m32" transform="translate(1072.00 52.00) scale(0.01150)"/><use href="#m37" transform="translate(1081.30 52.00) scale(0.01150)"/><use href="#m38" transform="translate(1090.60 52.00) scale(0.01150)"/><use href="#m44" transform="translate(1099.90 52.00) scale(0.01150)"/><use href="#m75" transform="translate(1109.20 52.00) scale(0.01150)"/><use href="#m32" transform="translate(1118.50 52.00) scale(0.01150)"/><use href="#m44" transform="translate(1127.80 52.00) scale(0.01150)"/><use href="#m42" transform="translate(1137.10 52.00) scale(0.01150)"/></g>
<g class="fade" style="animation-delay:1.0s" opacity=".9"><line x1="0" y1="208.5" x2="1200" y2="208.5" stroke="#2f8f45" stroke-width="1" opacity=".18" stroke-dasharray="3 5"/><line x1="600.0" y1="75.0" x2="600.0" y2="342.0" stroke="#2f8f45" stroke-width="1" opacity=".18" stroke-dasharray="3 5"/></g>
<g class="sol"><g class="in" fill="#0e0f0e" style="animation-delay:.25s"><use href="#i1" transform="translate(466.95 258.00) scale(0.15000)"/><use href="#i192" transform="translate(532.80 258.00) scale(0.15000)"/><use href="#i202" transform="translate(588.00 258.00) scale(0.15000)"/><use href="#i324" transform="translate(654.30 258.00) scale(0.15000)"/></g></g>
<g class="px"><g fill="#0e0f0e" shape-rendering="crispEdges"><rect x="695.0" y="145.0" width="6" height="6"/><rect x="701.0" y="145.0" width="6" height="6"/><rect x="707.0" y="145.0" width="6" height="6"/><rect x="515.0" y="151.0" width="6" height="6"/><rect x="689.0" y="151.0" width="6" height="6"/><rect x="695.0" y="151.0" width="6" height="6"/><rect x="701.0" y="151.0" width="6" height="6"/><rect x="707.0" y="151.0" width="6" height="6"/><rect x="713.0" y="151.0" width="6" height="6"/><rect x="719.0" y="151.0" width="6" height="6"/><rect x="509.0" y="157.0" width="6" height="6"/><rect x="515.0" y="157.0" width="6" height="6"/><rect x="611.0" y="157.0" width="6" height="6"/><rect x="617.0" y="157.0" width="6" height="6"/><rect x="683.0" y="157.0" width="6" height="6"/><rect x="713.0" y="157.0" width="6" height="6"/><rect x="719.0" y="157.0" width="6" height="6"/><rect x="509.0" y="163.0" width="6" height="6"/><rect x="515.0" y="163.0" width="6" height="6"/><rect x="611.0" y="163.0" width="6" height="6"/><rect x="617.0" y="163.0" width="6" height="6"/><rect x="683.0" y="163.0" width="6" height="6"/><rect x="713.0" y="163.0" width="6" height="6"/><rect x="719.0" y="163.0" width="6" height="6"/><rect x="503.0" y="169.0" width="6" height="6"/><rect x="509.0" y="169.0" width="6" height="6"/><rect x="515.0" y="169.0" width="6" height="6"/><rect x="611.0" y="169.0" width="6" height="6"/><rect x="617.0" y="169.0" width="6" height="6"/><rect x="677.0" y="169.0" width="6" height="6"/><rect x="713.0" y="169.0" width="6" height="6"/><rect x="503.0" y="175.0" width="6" height="6"/><rect x="509.0" y="175.0" width="6" height="6"/><rect x="515.0" y="175.0" width="6" height="6"/><rect x="605.0" y="175.0" width="6" height="6"/><rect x="611.0" y="175.0" width="6" height="6"/><rect x="617.0" y="175.0" width="6" height="6"/><rect x="677.0" y="175.0" width="6" height="6"/><rect x="713.0" y="175.0" width="6" height="6"/><rect x="497.0" y="181.0" width="6" height="6"/><rect x="509.0" y="181.0" width="6" height="6"/><rect x="515.0" y="181.0" width="6" height="6"/><rect x="545.0" y="181.0" width="6" height="6"/><rect x="551.0" y="181.0" width="6" height="6"/><rect x="557.0" y="181.0" width="6" height="6"/><rect x="575.0" y="181.0" width="6" height="6"/><rect x="581.0" y="181.0" width="6" height="6"/><rect x="587.0" y="181.0" width="6" height="6"/><rect x="605.0" y="181.0" width="6" height="6"/><rect x="611.0" y="181.0" width="6" height="6"/><rect x="683.0" y="181.0" width="6" height="6"/><rect x="497.0" y="187.0" width="6" height="6"/><rect x="509.0" y="187.0" width="6" height="6"/><rect x="515.0" y="187.0" width="6" height="6"/><rect x="545.0" y="187.0" width="6" height="6"/><rect x="557.0" y="187.0" width="6" height="6"/><rect x="569.0" y="187.0" width="6" height="6"/><rect x="581.0" y="187.0" width="6" height="6"/><rect x="587.0" y="187.0" width="6" height="6"/><rect x="605.0" y="187.0" width="6" height="6"/><rect x="611.0" y="187.0" width="6" height="6"/><rect x="677.0" y="187.0" width="6" height="6"/><rect x="683.0" y="187.0" width="6" height="6"/><rect x="689.0" y="187.0" width="6" height="6"/><rect x="695.0" y="187.0" width="6" height="6"/><rect x="491.0" y="193.0" width="6" height="6"/><rect x="509.0" y="193.0" width="6" height="6"/><rect x="515.0" y="193.0" width="6" height="6"/><rect x="539.0" y="193.0" width="6" height="6"/><rect x="557.0" y="193.0" width="6" height="6"/><rect x="563.0" y="193.0" width="6" height="6"/><rect x="605.0" y="193.0" width="6" height="6"/><rect x="611.0" y="193.0" width="6" height="6"/><rect x="671.0" y="193.0" width="6" height="6"/><rect x="719.0" y="193.0" width="6" height="6"/><rect x="725.0" y="193.0" width="6" height="6"/><rect x="731.0" y="193.0" width="6" height="6"/><rect x="491.0" y="199.0" width="6" height="6"/><rect x="509.0" y="199.0" width="6" height="6"/><rect x="515.0" y="199.0" width="6" height="6"/><rect x="551.0" y="199.0" width="6" height="6"/><rect x="557.0" y="199.0" width="6" height="6"/><rect x="563.0" y="199.0" width="6" height="6"/><rect x="605.0" y="199.0" width="6" height="6"/><rect x="665.0" y="199.0" width="6" height="6"/><rect x="725.0" y="199.0" width="6" height="6"/><rect x="731.0" y="199.0" width="6" height="6"/><rect x="485.0" y="205.0" width="6" height="6"/><rect x="509.0" y="205.0" width="6" height="6"/><rect x="515.0" y="205.0" width="6" height="6"/><rect x="551.0" y="205.0" width="6" height="6"/><rect x="557.0" y="205.0" width="6" height="6"/><rect x="563.0" y="205.0" width="6" height="6"/><rect x="599.0" y="205.0" width="6" height="6"/><rect x="605.0" y="205.0" width="6" height="6"/><rect x="659.0" y="205.0" width="6" height="6"/><rect x="665.0" y="205.0" width="6" height="6"/><rect x="701.0" y="205.0" width="6" height="6"/><rect x="707.0" y="205.0" width="6" height="6"/><rect x="713.0" y="205.0" width="6" height="6"/><rect x="725.0" y="205.0" width="6" height="6"/><rect x="485.0" y="211.0" width="6" height="6"/><rect x="509.0" y="211.0" width="6" height="6"/><rect x="515.0" y="211.0" width="6" height="6"/><rect x="551.0" y="211.0" width="6" height="6"/><rect x="557.0" y="211.0" width="6" height="6"/><rect x="599.0" y="211.0" width="6" height="6"/><rect x="605.0" y="211.0" width="6" height="6"/><rect x="659.0" y="211.0" width="6" height="6"/><rect x="665.0" y="211.0" width="6" height="6"/><rect x="695.0" y="211.0" width="6" height="6"/><rect x="707.0" y="211.0" width="6" height="6"/><rect x="713.0" y="211.0" width="6" height="6"/><rect x="719.0" y="211.0" width="6" height="6"/><rect x="725.0" y="211.0" width="6" height="6"/><rect x="479.0" y="217.0" width="6" height="6"/><rect x="485.0" y="217.0" width="6" height="6"/><rect x="491.0" y="217.0" width="6" height="6"/><rect x="497.0" y="217.0" width="6" height="6"/><rect x="503.0" y="217.0" width="6" height="6"/><rect x="509.0" y="217.0" width="6" height="6"/><rect x="515.0" y="217.0" width="6" height="6"/><rect x="551.0" y="217.0" width="6" height="6"/><rect x="557.0" y="217.0" width="6" height="6"/><rect x="599.0" y="217.0" width="6" height="6"/><rect x="605.0" y="217.0" width="6" height="6"/><rect x="659.0" y="217.0" width="6" height="6"/><rect x="665.0" y="217.0" width="6" height="6"/><rect x="689.0" y="217.0" width="6" height="6"/><rect x="713.0" y="217.0" width="6" height="6"/><rect x="479.0" y="223.0" width="6" height="6"/><rect x="509.0" y="223.0" width="6" height="6"/><rect x="515.0" y="223.0" width="6" height="6"/><rect x="545.0" y="223.0" width="6" height="6"/><rect x="551.0" y="223.0" width="6" height="6"/><rect x="599.0" y="223.0" width="6" height="6"/><rect x="659.0" y="223.0" width="6" height="6"/><rect x="665.0" y="223.0" width="6" height="6"/><rect x="689.0" y="223.0" width="6" height="6"/><rect x="695.0" y="223.0" width="6" height="6"/><rect x="701.0" y="223.0" width="6" height="6"/><rect x="473.0" y="229.0" width="6" height="6"/><rect x="509.0" y="229.0" width="6" height="6"/><rect x="515.0" y="229.0" width="6" height="6"/><rect x="545.0" y="229.0" width="6" height="6"/><rect x="551.0" y="229.0" width="6" height="6"/><rect x="593.0" y="229.0" width="6" height="6"/><rect x="599.0" y="229.0" width="6" height="6"/><rect x="617.0" y="229.0" width="6" height="6"/><rect x="659.0" y="229.0" width="6" height="6"/><rect x="665.0" y="229.0" width="6" height="6"/><rect x="695.0" y="229.0" width="6" height="6"/><rect x="701.0" y="229.0" width="6" height="6"/><rect x="713.0" y="229.0" width="6" height="6"/><rect x="473.0" y="235.0" width="6" height="6"/><rect x="509.0" y="235.0" width="6" height="6"/><rect x="515.0" y="235.0" width="6" height="6"/><rect x="545.0" y="235.0" width="6" height="6"/><rect x="551.0" y="235.0" width="6" height="6"/><rect x="593.0" y="235.0" width="6" height="6"/><rect x="599.0" y="235.0" width="6" height="6"/><rect x="617.0" y="235.0" width="6" height="6"/><rect x="659.0" y="235.0" width="6" height="6"/><rect x="665.0" y="235.0" width="6" height="6"/><rect x="713.0" y="235.0" width="6" height="6"/><rect x="467.0" y="241.0" width="6" height="6"/><rect x="509.0" y="241.0" width="6" height="6"/><rect x="515.0" y="241.0" width="6" height="6"/><rect x="545.0" y="241.0" width="6" height="6"/><rect x="593.0" y="241.0" width="6" height="6"/><rect x="599.0" y="241.0" width="6" height="6"/><rect x="611.0" y="241.0" width="6" height="6"/><rect x="665.0" y="241.0" width="6" height="6"/><rect x="671.0" y="241.0" width="6" height="6"/><rect x="707.0" y="241.0" width="6" height="6"/><rect x="467.0" y="247.0" width="6" height="6"/><rect x="509.0" y="247.0" width="6" height="6"/><rect x="515.0" y="247.0" width="6" height="6"/><rect x="539.0" y="247.0" width="6" height="6"/><rect x="545.0" y="247.0" width="6" height="6"/><rect x="593.0" y="247.0" width="6" height="6"/><rect x="599.0" y="247.0" width="6" height="6"/><rect x="605.0" y="247.0" width="6" height="6"/><rect x="611.0" y="247.0" width="6" height="6"/><rect x="665.0" y="247.0" width="6" height="6"/><rect x="671.0" y="247.0" width="6" height="6"/><rect x="677.0" y="247.0" width="6" height="6"/><rect x="695.0" y="247.0" width="6" height="6"/><rect x="701.0" y="247.0" width="6" height="6"/><rect x="467.0" y="253.0" width="6" height="6"/><rect x="473.0" y="253.0" width="6" height="6"/><rect x="503.0" y="253.0" width="6" height="6"/><rect x="509.0" y="253.0" width="6" height="6"/><rect x="515.0" y="253.0" width="6" height="6"/><rect x="521.0" y="253.0" width="6" height="6"/><rect x="545.0" y="253.0" width="6" height="6"/><rect x="599.0" y="253.0" width="6" height="6"/><rect x="683.0" y="253.0" width="6" height="6"/><rect x="689.0" y="253.0" width="6" height="6"/></g></g>
<style>
      .sol { animation: sol 12s steps(1) infinite; }
      .px  { opacity: 0; animation: pxl 12s steps(1) infinite; }
      @keyframes sol { 0%, 58% { opacity: 1; } 58.01%, 91% { opacity: 0; } 91.01%, 100% { opacity: 1; } }
      @keyframes pxl { 0%, 58% { opacity: 0; } 58.01%, 91% { opacity: 1; } 91.01%, 100% { opacity: 0; } }
      .knob { animation: knob 12s steps(1) infinite; }
      @keyframes knob { 0%, 58% { transform: translateX(0); } 58.01%, 91% { transform: translateX(10px); } 91.01%, 100% { transform: translateX(0); } }
    </style>
<g class="draw" style="animation-delay:.7s"><rect pathLength="1" x="449.0" y="135.0" width="302.1" height="147.0" stroke="#2f8f45" stroke-width="1.5" fill="none"/></g>
<rect class="fade" style="animation-delay:1.25s" x="445.0" y="131.0" width="8" height="8" fill="#ffffff" stroke="#2f8f45" stroke-width="1.5"/>
<rect class="fade" style="animation-delay:1.25s" x="747.0" y="131.0" width="8" height="8" fill="#ffffff" stroke="#2f8f45" stroke-width="1.5"/>
<rect class="fade" style="animation-delay:1.25s" x="445.0" y="278.0" width="8" height="8" fill="#ffffff" stroke="#2f8f45" stroke-width="1.5"/>
<rect class="fade" style="animation-delay:1.25s" x="747.0" y="278.0" width="8" height="8" fill="#ffffff" stroke="#2f8f45" stroke-width="1.5"/>
<g class="fade" style="animation-delay:1.4s"><path d="M449.0 113.0 h44 v22 h-44 z" fill="#2f8f45"/><g fill="#ffffff"><use href="#n49" transform="translate(456.95 127.00) scale(0.01100)"/><use href="#n6" transform="translate(463.55 127.00) scale(0.01100)"/><use href="#n27" transform="translate(470.15 127.00) scale(0.01100)"/><use href="#n23" transform="translate(476.75 127.00) scale(0.01100)"/></g></g>
<g class="fade" style="animation-delay:1.55s">
      <rect x="563.0" y="294.0" width="74" height="24" rx="12" fill="#2f8f45"/>
      <circle cx="579.0" cy="306.0" r="6" fill="#f2f2f2" stroke="rgba(7,8,7,.35)" stroke-width="1.5"/>
      <circle cx="597.0" cy="306.0" r="6" fill="url(#pxsw)" stroke="rgba(7,8,7,.35)" stroke-width="1.5"/>
      <rect x="609.0" y="299.0" width="24" height="14" rx="7" fill="rgba(15,23,42,.35)"/>
      <circle class="knob" cx="616.0" cy="306.0" r="5" fill="#ffffff"/>
    </g>
    <defs><linearGradient id="pxsw" x1="0" x2="1"><stop offset="0" stop-color="#ff6b00"/><stop offset=".25" stop-color="#ff6b00"/><stop offset=".25" stop-color="#f5c518"/><stop offset=".5" stop-color="#f5c518"/><stop offset=".5" stop-color="#22d3ee"/><stop offset=".75" stop-color="#22d3ee"/><stop offset=".75" stop-color="#1d4ed8"/></linearGradient></defs>
<style>.alt { opacity: 0; } @keyframes flick { from { opacity: 1; } to { opacity: 0; } }</style>
<g class="alt" fill="#7d7f7f" style="animation: flick 0.07s steps(1) 1.000s forwards"><use href="#a440" transform="translate(279.03 486.00) scale(0.07324)"/></g>
<g class="alt" fill="#7d7f7f" style="animation: flick 0.07s steps(1) 1.070s forwards"><use href="#a123" transform="translate(279.03 486.00) scale(0.07324)"/></g>
<g class="alt" fill="#7d7f7f" style="animation: flick 0.07s steps(1) 1.140s forwards"><use href="#a1001" transform="translate(279.03 486.00) scale(0.07324)"/></g>
<g class="alt" fill="#7d7f7f" style="animation: flick 0.07s steps(1) 1.210s forwards"><use href="#a919" transform="translate(279.03 486.00) scale(0.07324)"/></g>
<g class="fade" fill="#0e0f0e" style="animation-delay:1.280s;animation-duration:.05s"><use href="#a282" transform="translate(279.03 486.00) scale(0.07324)"/></g>
<g class="alt" fill="#7d7f7f" style="animation: flick 0.07s steps(1) 1.075s forwards"><use href="#a255" transform="translate(333.36 486.00) scale(0.07324)"/></g>
<g class="alt" fill="#7d7f7f" style="animation: flick 0.07s steps(1) 1.145s forwards"><use href="#a282" transform="translate(333.36 486.00) scale(0.07324)"/></g>
<g class="alt" fill="#7d7f7f" style="animation: flick 0.07s steps(1) 1.215s forwards"><use href="#a1163" transform="translate(333.36 486.00) scale(0.07324)"/></g>
<g class="alt" fill="#7d7f7f" style="animation: flick 0.07s steps(1) 1.285s forwards"><use href="#a47" transform="translate(333.36 486.00) scale(0.07324)"/></g>
<g class="fade" fill="#0e0f0e" style="animation-delay:1.355s;animation-duration:.05s"><use href="#a72" transform="translate(333.36 486.00) scale(0.07324)"/></g>
<g class="alt" fill="#7d7f7f" style="animation: flick 0.07s steps(1) 1.150s forwards"><use href="#a1359" transform="translate(390.10 486.00) scale(0.07324)"/></g>
<g class="alt" fill="#7d7f7f" style="animation: flick 0.07s steps(1) 1.220s forwards"><use href="#a1152" transform="translate(390.10 486.00) scale(0.07324)"/></g>
<g class="alt" fill="#7d7f7f" style="animation: flick 0.07s steps(1) 1.290s forwards"><use href="#a255" transform="translate(390.10 486.00) scale(0.07324)"/></g>
<g class="alt" fill="#7d7f7f" style="animation: flick 0.07s steps(1) 1.360s forwards"><use href="#a685" transform="translate(390.10 486.00) scale(0.07324)"/></g>
<g class="fade" fill="#0e0f0e" style="animation-delay:1.430s;animation-duration:.05s"><use href="#a47" transform="translate(390.10 486.00) scale(0.07324)"/></g>
<g class="alt" fill="#7d7f7f" style="animation: flick 0.07s steps(1) 1.225s forwards"><use href="#a1172" transform="translate(456.22 486.00) scale(0.07324)"/></g>
<g class="alt" fill="#7d7f7f" style="animation: flick 0.07s steps(1) 1.295s forwards"><use href="#a255" transform="translate(456.22 486.00) scale(0.07324)"/></g>
<g class="alt" fill="#7d7f7f" style="animation: flick 0.07s steps(1) 1.365s forwards"><use href="#a282" transform="translate(456.22 486.00) scale(0.07324)"/></g>
<g class="alt" fill="#7d7f7f" style="animation: flick 0.07s steps(1) 1.435s forwards"><use href="#a1222" transform="translate(456.22 486.00) scale(0.07324)"/></g>
<g class="fade" fill="#0e0f0e" style="animation-delay:1.505s;animation-duration:.05s"><use href="#a123" transform="translate(456.22 486.00) scale(0.07324)"/></g>
<g class="alt" fill="#7d7f7f" style="animation: flick 0.07s steps(1) 1.300s forwards"><use href="#a1001" transform="translate(526.07 486.00) scale(0.07324)"/></g>
<g class="alt" fill="#7d7f7f" style="animation: flick 0.07s steps(1) 1.370s forwards"><use href="#a282" transform="translate(526.07 486.00) scale(0.07324)"/></g>
<g class="alt" fill="#7d7f7f" style="animation: flick 0.07s steps(1) 1.440s forwards"><use href="#a1172" transform="translate(526.07 486.00) scale(0.07324)"/></g>
<g class="alt" fill="#7d7f7f" style="animation: flick 0.07s steps(1) 1.510s forwards"><use href="#a282" transform="translate(526.07 486.00) scale(0.07324)"/></g>
<g class="fade" fill="#0e0f0e" style="animation-delay:1.580s;animation-duration:.05s"><use href="#a190" transform="translate(526.07 486.00) scale(0.07324)"/></g>
<g class="alt" fill="#7d7f7f" style="animation: flick 0.07s steps(1) 1.375s forwards"><use href="#a685" transform="translate(595.78 486.00) scale(0.07324)"/></g>
<g class="alt" fill="#7d7f7f" style="animation: flick 0.07s steps(1) 1.445s forwards"><use href="#a1001" transform="translate(595.78 486.00) scale(0.07324)"/></g>
<g class="alt" fill="#7d7f7f" style="animation: flick 0.07s steps(1) 1.515s forwards"><use href="#a255" transform="translate(595.78 486.00) scale(0.07324)"/></g>
<g class="alt" fill="#7d7f7f" style="animation: flick 0.07s steps(1) 1.585s forwards"><use href="#a1163" transform="translate(595.78 486.00) scale(0.07324)"/></g>
<g class="fade" fill="#0e0f0e" style="animation-delay:1.655s;animation-duration:.05s"><use href="#a204" transform="translate(595.78 486.00) scale(0.07324)"/></g>
<g class="alt" fill="#7d7f7f" style="animation: flick 0.07s steps(1) 1.450s forwards"><use href="#a72" transform="translate(663.73 486.00) scale(0.07324)"/></g>
<g class="alt" fill="#7d7f7f" style="animation: flick 0.07s steps(1) 1.520s forwards"><use href="#a1172" transform="translate(663.73 486.00) scale(0.07324)"/></g>
<g class="alt" fill="#7d7f7f" style="animation: flick 0.07s steps(1) 1.590s forwards"><use href="#a628" transform="translate(663.73 486.00) scale(0.07324)"/></g>
<g class="alt" fill="#7d7f7f" style="animation: flick 0.07s steps(1) 1.660s forwards"><use href="#a628" transform="translate(663.73 486.00) scale(0.07324)"/></g>
<g class="fade" fill="#0e0f0e" style="animation-delay:1.730s;animation-duration:.05s"><use href="#a169" transform="translate(663.73 486.00) scale(0.07324)"/></g>
<g class="alt" fill="#7d7f7f" style="animation: flick 0.07s steps(1) 1.525s forwards"><use href="#a1163" transform="translate(718.35 486.00) scale(0.07324)"/></g>
<g class="alt" fill="#7d7f7f" style="animation: flick 0.07s steps(1) 1.595s forwards"><use href="#a255" transform="translate(718.35 486.00) scale(0.07324)"/></g>
<g class="alt" fill="#7d7f7f" style="animation: flick 0.07s steps(1) 1.665s forwards"><use href="#a1163" transform="translate(718.35 486.00) scale(0.07324)"/></g>
<g class="alt" fill="#7d7f7f" style="animation: flick 0.07s steps(1) 1.735s forwards"><use href="#a1163" transform="translate(718.35 486.00) scale(0.07324)"/></g>
<g class="fade" fill="#0e0f0e" style="animation-delay:1.805s;animation-duration:.05s"><use href="#a204" transform="translate(718.35 486.00) scale(0.07324)"/></g>
<g class="alt" fill="#7d7f7f" style="animation: flick 0.07s steps(1) 1.600s forwards"><use href="#a1359" transform="translate(786.30 486.00) scale(0.07324)"/></g>
<g class="alt" fill="#7d7f7f" style="animation: flick 0.07s steps(1) 1.670s forwards"><use href="#a255" transform="translate(786.30 486.00) scale(0.07324)"/></g>
<g class="alt" fill="#7d7f7f" style="animation: flick 0.07s steps(1) 1.740s forwards"><use href="#a1172" transform="translate(786.30 486.00) scale(0.07324)"/></g>
<g class="alt" fill="#7d7f7f" style="animation: flick 0.07s steps(1) 1.810s forwards"><use href="#a255" transform="translate(786.30 486.00) scale(0.07324)"/></g>
<g class="fade" fill="#0e0f0e" style="animation-delay:1.880s;animation-duration:.05s"><use href="#a110" transform="translate(786.30 486.00) scale(0.07324)"/></g>
<g class="alt" fill="#7d7f7f" style="animation: flick 0.07s steps(1) 1.675s forwards"><use href="#a685" transform="translate(854.03 486.00) scale(0.07324)"/></g>
<g class="alt" fill="#7d7f7f" style="animation: flick 0.07s steps(1) 1.745s forwards"><use href="#a47" transform="translate(854.03 486.00) scale(0.07324)"/></g>
<g class="alt" fill="#7d7f7f" style="animation: flick 0.07s steps(1) 1.815s forwards"><use href="#a1043" transform="translate(854.03 486.00) scale(0.07324)"/></g>
<g class="alt" fill="#7d7f7f" style="animation: flick 0.07s steps(1) 1.885s forwards"><use href="#a1001" transform="translate(854.03 486.00) scale(0.07324)"/></g>
<g class="fade" fill="#0e0f0e" style="animation-delay:1.955s;animation-duration:.05s"><use href="#a346" transform="translate(854.03 486.00) scale(0.07324)"/></g>
<g class="fade" fill="#3d3f3e" style="animation-delay:2.1s"><use href="#m30" transform="translate(370.60 540.00) scale(0.01300)"/><use href="#m21" transform="translate(378.80 540.00) scale(0.01300)"/><use href="#m23" transform="translate(387.00 540.00) scale(0.01300)"/><use href="#m6" transform="translate(395.20 540.00) scale(0.01300)"/><use href="#m4" transform="translate(403.40 540.00) scale(0.01300)"/><use href="#m11" transform="translate(411.60 540.00) scale(0.01300)"/><use href="#m38" transform="translate(428.00 540.00) scale(0.01300)"/><use href="#m102" transform="translate(436.20 540.00) scale(0.01300)"/><use href="#m44" transform="translate(444.40 540.00) scale(0.01300)"/><use href="#m73" transform="translate(460.80 540.00) scale(0.01300)"/><use href="#m1" transform="translate(477.20 540.00) scale(0.01300)"/><use href="#m17" transform="translate(485.40 540.00) scale(0.01300)"/><use href="#m12" transform="translate(501.80 540.00) scale(0.01300)"/><use href="#m17" transform="translate(510.00 540.00) scale(0.01300)"/><use href="#m5" transform="translate(518.20 540.00) scale(0.01300)"/><use href="#m6" transform="translate(526.40 540.00) scale(0.01300)"/><use href="#m19" transform="translate(534.60 540.00) scale(0.01300)"/><use href="#m6" transform="translate(542.80 540.00) scale(0.01300)"/><use href="#m17" transform="translate(551.00 540.00) scale(0.01300)"/><use href="#m5" transform="translate(559.20 540.00) scale(0.01300)"/><use href="#m6" transform="translate(567.40 540.00) scale(0.01300)"/><use href="#m17" transform="translate(575.60 540.00) scale(0.01300)"/><use href="#m23" transform="translate(583.80 540.00) scale(0.01300)"/><use href="#m5" transform="translate(600.20 540.00) scale(0.01300)"/><use href="#m6" transform="translate(608.40 540.00) scale(0.01300)"/><use href="#m22" transform="translate(616.60 540.00) scale(0.01300)"/><use href="#m12" transform="translate(624.80 540.00) scale(0.01300)"/><use href="#m8" transform="translate(633.00 540.00) scale(0.01300)"/><use href="#m17" transform="translate(641.20 540.00) scale(0.01300)"/><use href="#m68" transform="translate(657.60 540.00) scale(0.01300)"/><use href="#m6" transform="translate(674.00 540.00) scale(0.01300)"/><use href="#m17" transform="translate(682.20 540.00) scale(0.01300)"/><use href="#m8" transform="translate(690.40 540.00) scale(0.01300)"/><use href="#m12" transform="translate(698.60 540.00) scale(0.01300)"/><use href="#m17" transform="translate(706.80 540.00) scale(0.01300)"/><use href="#m6" transform="translate(715.00 540.00) scale(0.01300)"/><use href="#m6" transform="translate(723.20 540.00) scale(0.01300)"/><use href="#m21" transform="translate(731.40 540.00) scale(0.01300)"/><use href="#m12" transform="translate(739.60 540.00) scale(0.01300)"/><use href="#m17" transform="translate(747.80 540.00) scale(0.01300)"/><use href="#m8" transform="translate(756.00 540.00) scale(0.01300)"/><use href="#m22" transform="translate(772.40 540.00) scale(0.01300)"/><use href="#m23" transform="translate(780.60 540.00) scale(0.01300)"/><use href="#m24" transform="translate(788.80 540.00) scale(0.01300)"/><use href="#m5" transform="translate(797.00 540.00) scale(0.01300)"/><use href="#m12" transform="translate(805.20 540.00) scale(0.01300)"/><use href="#m18" transform="translate(813.40 540.00) scale(0.01300)"/><use href="#m75" transform="translate(821.60 540.00) scale(0.01300)"/></g>
<g class="fade" fill="#7d7f7f" style="animation-delay:2.25s"><use href="#m31" transform="translate(296.80 562.00) scale(0.01300)"/><use href="#m21" transform="translate(305.00 562.00) scale(0.01300)"/><use href="#m1" transform="translate(313.20 562.00) scale(0.01300)"/><use href="#m17" transform="translate(321.40 562.00) scale(0.01300)"/><use href="#m5" transform="translate(329.60 562.00) scale(0.01300)"/><use href="#m78" transform="translate(337.80 562.00) scale(0.01300)"/><use href="#m12" transform="translate(354.20 562.00) scale(0.01300)"/><use href="#m17" transform="translate(362.40 562.00) scale(0.01300)"/><use href="#m23" transform="translate(370.60 562.00) scale(0.01300)"/><use href="#m6" transform="translate(378.80 562.00) scale(0.01300)"/><use href="#m21" transform="translate(387.00 562.00) scale(0.01300)"/><use href="#m7" transform="translate(395.20 562.00) scale(0.01300)"/><use href="#m1" transform="translate(403.40 562.00) scale(0.01300)"/><use href="#m4" transform="translate(411.60 562.00) scale(0.01300)"/><use href="#m6" transform="translate(419.80 562.00) scale(0.01300)"/><use href="#m1" transform="translate(436.20 562.00) scale(0.01300)"/><use href="#m17" transform="translate(444.40 562.00) scale(0.01300)"/><use href="#m5" transform="translate(452.60 562.00) scale(0.01300)"/><use href="#m22" transform="translate(469.00 562.00) scale(0.01300)"/><use href="#m18" transform="translate(477.20 562.00) scale(0.01300)"/><use href="#m7" transform="translate(485.40 562.00) scale(0.01300)"/><use href="#m23" transform="translate(493.60 562.00) scale(0.01300)"/><use href="#m26" transform="translate(501.80 562.00) scale(0.01300)"/><use href="#m1" transform="translate(510.00 562.00) scale(0.01300)"/><use href="#m21" transform="translate(518.20 562.00) scale(0.01300)"/><use href="#m6" transform="translate(526.40 562.00) scale(0.01300)"/><use href="#m78" transform="translate(534.60 562.00) scale(0.01300)"/><use href="#m23" transform="translate(551.00 562.00) scale(0.01300)"/><use href="#m1" transform="translate(559.20 562.00) scale(0.01300)"/><use href="#m14" transform="translate(567.40 562.00) scale(0.01300)"/><use href="#m6" transform="translate(575.60 562.00) scale(0.01300)"/><use href="#m17" transform="translate(583.80 562.00) scale(0.01300)"/><use href="#m7" transform="translate(600.20 562.00) scale(0.01300)"/><use href="#m21" transform="translate(608.40 562.00) scale(0.01300)"/><use href="#m18" transform="translate(616.60 562.00) scale(0.01300)"/><use href="#m16" transform="translate(624.80 562.00) scale(0.01300)"/><use href="#m7" transform="translate(641.20 562.00) scale(0.01300)"/><use href="#m12" transform="translate(649.40 562.00) scale(0.01300)"/><use href="#m21" transform="translate(657.60 562.00) scale(0.01300)"/><use href="#m22" transform="translate(665.80 562.00) scale(0.01300)"/><use href="#m23" transform="translate(674.00 562.00) scale(0.01300)"/><use href="#m22" transform="translate(690.40 562.00) scale(0.01300)"/><use href="#m14" transform="translate(698.60 562.00) scale(0.01300)"/><use href="#m6" transform="translate(706.80 562.00) scale(0.01300)"/><use href="#m23" transform="translate(715.00 562.00) scale(0.01300)"/><use href="#m4" transform="translate(723.20 562.00) scale(0.01300)"/><use href="#m11" transform="translate(731.40 562.00) scale(0.01300)"/><use href="#m23" transform="translate(747.80 562.00) scale(0.01300)"/><use href="#m18" transform="translate(756.00 562.00) scale(0.01300)"/><use href="#m22" transform="translate(772.40 562.00) scale(0.01300)"/><use href="#m11" transform="translate(780.60 562.00) scale(0.01300)"/><use href="#m12" transform="translate(788.80 562.00) scale(0.01300)"/><use href="#m19" transform="translate(797.00 562.00) scale(0.01300)"/><use href="#m19" transform="translate(805.20 562.00) scale(0.01300)"/><use href="#m6" transform="translate(813.40 562.00) scale(0.01300)"/><use href="#m5" transform="translate(821.60 562.00) scale(0.01300)"/><use href="#m19" transform="translate(838.00 562.00) scale(0.01300)"/><use href="#m21" transform="translate(846.20 562.00) scale(0.01300)"/><use href="#m18" transform="translate(854.40 562.00) scale(0.01300)"/><use href="#m5" transform="translate(862.60 562.00) scale(0.01300)"/><use href="#m24" transform="translate(870.80 562.00) scale(0.01300)"/><use href="#m4" transform="translate(879.00 562.00) scale(0.01300)"/><use href="#m23" transform="translate(887.20 562.00) scale(0.01300)"/><use href="#m75" transform="translate(895.40 562.00) scale(0.01300)"/></g>
<g class="fade" fill="#7d7f7f" style="animation-delay:2.30s"><use href="#m33" transform="translate(56.00 596.00) scale(0.01150)"/><use href="#m34" transform="translate(65.30 596.00) scale(0.01150)"/><use href="#m48" transform="translate(74.60 596.00) scale(0.01150)"/><use href="#m38" transform="translate(83.90 596.00) scale(0.01150)"/><use href="#m36" transform="translate(93.20 596.00) scale(0.01150)"/><use href="#m43" transform="translate(102.50 596.00) scale(0.01150)"/><use href="#m129" transform="translate(130.40 596.00) scale(0.01150)"/><use href="#m34" transform="translate(158.30 596.00) scale(0.01150)"/><use href="#m43" transform="translate(167.60 596.00) scale(0.01150)"/><use href="#m36" transform="translate(176.90 596.00) scale(0.01150)"/><use href="#m38" transform="translate(186.20 596.00) scale(0.01150)"/><use href="#m43" transform="translate(195.50 596.00) scale(0.01150)"/><use href="#m34" transform="translate(204.80 596.00) scale(0.01150)"/><use href="#m34" transform="translate(214.10 596.00) scale(0.01150)"/><use href="#m47" transform="translate(223.40 596.00) scale(0.01150)"/><use href="#m38" transform="translate(232.70 596.00) scale(0.01150)"/><use href="#m43" transform="translate(242.00 596.00) scale(0.01150)"/><use href="#m36" transform="translate(251.30 596.00) scale(0.01150)"/></g>
<g class="fade" fill="#7d7f7f" style="animation-delay:2.40s"><use href="#m34" transform="translate(1062.70 596.00) scale(0.01150)"/><use href="#m48" transform="translate(1072.00 596.00) scale(0.01150)"/><use href="#m49" transform="translate(1081.30 596.00) scale(0.01150)"/><use href="#m75" transform="translate(1090.60 596.00) scale(0.01150)"/><use href="#m60" transform="translate(1109.20 596.00) scale(0.01150)"/><use href="#m56" transform="translate(1118.50 596.00) scale(0.01150)"/><use href="#m59" transform="translate(1127.80 596.00) scale(0.01150)"/><use href="#m62" transform="translate(1137.10 596.00) scale(0.01150)"/></g>
<defs><path id="m30" d="M481 0 422 -199H177L118 0H31L245 -698H356L570 0ZM304 -609H295L197 -272H402Z"/><path id="m47" d="M174 0H90V-698H344Q441 -698 492 -645Q543 -592 543 -497Q543 -412 499 -361Q455 -310 371 -302L549 0H455L285 -298H174ZM342 -369Q395 -369 424.5 -395.5Q454 -422 454 -471V-523Q454 -572 424.5 -598.5Q395 -625 342 -625H174V-369Z"/><path id="m49" d="M342 -625V0H258V-625H25V-698H575V-625Z"/><path id="m34" d="M90 0V-698H520V-625H174V-390H508V-317H174V-73H520V0Z"/><path id="m32" d="M323 12Q195 12 132.5 -81Q70 -174 70 -349Q70 -524 132.5 -617Q195 -710 323 -710Q371 -710 406 -697Q441 -684 466 -662Q491 -640 508 -612.5Q525 -585 538 -557L466 -524Q457 -547 445 -567.5Q433 -588 416.5 -603.5Q400 -619 377.5 -628Q355 -637 323 -637Q240 -637 199.5 -574Q159 -511 159 -406V-292Q159 -187 199.5 -124Q240 -61 323 -61Q355 -61 377.5 -70Q400 -79 416.5 -94.5Q433 -110 445 -130.5Q457 -151 466 -174L538 -141Q525 -112 508 -85Q491 -58 466 -36Q441 -14 406 -1Q371 12 323 12Z"/><path id="m37" d="M436 -317H164V0H80V-698H164V-390H436V-698H520V0H436Z"/><path id="m38" d="M84 0V-67H258V-631H84V-698H516V-631H342V-67H516V0Z"/><path id="m102" d="M90 138 438 -760H510L162 138Z"/><path id="m44" d="M300 12Q236 12 190 -12.5Q144 -37 114 -83Q84 -129 70 -196Q56 -263 56 -349Q56 -434 70 -501.5Q84 -569 114 -615Q144 -661 190 -685.5Q236 -710 300 -710Q364 -710 410 -685.5Q456 -661 486 -615Q516 -569 530 -501.5Q544 -434 544 -349Q544 -263 530 -196Q516 -129 486 -83Q456 -37 410 -12.5Q364 12 300 12ZM300 -61Q342 -61 371 -77.5Q400 -94 419 -124Q438 -154 446.5 -196.5Q455 -239 455 -292V-406Q455 -458 446.5 -501Q438 -544 419 -574Q400 -604 371 -620.5Q342 -637 300 -637Q258 -637 229 -620.5Q200 -604 181 -574Q162 -544 153.5 -501Q145 -458 145 -406V-292Q145 -239 153.5 -196.5Q162 -154 181 -124Q200 -94 229 -77.5Q258 -61 300 -61Z"/><path id="m75" d="M300 9Q259 9 242.5 -8Q226 -25 226 -51V-69Q226 -95 242.5 -112Q259 -129 300 -129Q341 -129 357.5 -112Q374 -95 374 -69V-51Q374 -25 357.5 -8Q341 9 300 9Z"/><path id="m42" d="M455 -350V-571H447L300 -212L153 -571H145V-350V0H68V-698H176L299 -390H305L428 -698H532V0H455Z"/><path id="i1" d="M-62 0Q-74 0 -74 -10Q-74 -19 -58 -23L-42 -26Q-22 -30 -7.5 -45.5Q7 -61 20 -89L319 -714Q324 -724 329 -727Q334 -730 338 -730Q343 -730 346.5 -727Q350 -724 350 -714L361 -80Q362 -52 368 -41.5Q374 -31 393 -26L406 -23Q418 -20 418 -11Q418 0 401 0H236Q223 0 223 -10Q223 -21 243 -23L263 -25Q280 -27 286.5 -36Q293 -45 293 -67L291 -222Q291 -248 264 -248H157Q131 -248 118 -222L53 -88Q26 -31 71 -25L85 -23Q100 -21 100 -11Q100 0 83 0ZM161 -278H273Q290 -278 290 -295L288 -568H283L152 -295Q148 -288 151 -283Q154 -278 161 -278Z"/><path id="i192" d="M64 0Q50 0 53 -13L148 -412Q153 -434 149.5 -446.5Q146 -459 131 -459Q113 -459 91.5 -432.5Q70 -406 43 -332Q39 -319 29 -319Q14 -319 21 -337Q43 -406 67.5 -445Q92 -484 117 -500Q142 -516 163 -516Q196 -516 210 -491.5Q224 -467 211 -411L200 -364Q199 -357 203 -356Q207 -355 210 -361Q248 -448 279 -482Q310 -516 350 -516Q377 -516 390.5 -501.5Q404 -487 404 -462Q404 -437 392 -422Q380 -407 361 -407Q345 -407 338 -415Q331 -423 327.5 -433.5Q324 -444 320 -452Q316 -460 307 -460Q292 -460 268 -422Q244 -384 216.5 -319.5Q189 -255 163.5 -175Q138 -95 119 -11Q116 0 105 0Z"/><path id="i202" d="M102 9Q68 9 49 -18Q30 -45 43 -105L126 -467Q129 -482 114 -482H76Q62 -482 62 -495Q62 -502 67 -506Q72 -510 79 -510H115Q138 -510 142 -531L166 -638Q169 -649 180 -649H221Q235 -649 232 -636L207 -525Q204 -510 219 -510H276Q293 -510 293 -497Q293 -482 272 -482H218Q196 -482 191 -461L107 -95Q102 -73 108.5 -60.5Q115 -48 131 -48Q154 -48 173.5 -74Q193 -100 215 -173Q219 -186 228 -186Q235 -186 237 -180Q239 -174 234 -158Q215 -90 192.5 -54Q170 -18 147 -4.5Q124 9 102 9Z"/><path id="i324" d="M223 9Q162 9 116 -17Q70 -43 44.5 -89Q19 -135 19 -196Q19 -255 42.5 -306Q66 -357 106.5 -394Q147 -431 198 -447Q168 -486 168 -545Q168 -597 191.5 -639Q215 -681 255.5 -705.5Q296 -730 346 -730Q378 -730 407.5 -719.5Q437 -709 456 -691Q470 -678 466 -658L438 -512Q435 -497 424 -497Q412 -497 411 -514L410 -535Q406 -618 387 -652.5Q368 -687 325 -687Q289 -687 260.5 -668Q232 -649 215 -616Q198 -583 198 -541Q198 -482 230 -454Q245 -456 260 -456Q313 -456 313 -430Q313 -406 275 -406Q244 -406 218 -426Q91 -387 91 -218Q91 -126 131 -74.5Q171 -23 241 -23Q291 -23 331.5 -48Q372 -73 396 -114.5Q420 -156 420 -207Q420 -285 346 -285Q317 -285 300.5 -273.5Q284 -262 284 -245Q284 -230 294 -225Q304 -220 317 -217Q330 -214 340 -206.5Q350 -199 350 -179Q350 -161 337 -150.5Q324 -140 303 -140Q276 -140 260 -160Q244 -180 244 -213Q244 -250 266 -277Q288 -304 325.5 -316Q363 -328 408 -320L439 -315Q504 -305 504 -331Q504 -343 493 -348Q482 -353 468 -357.5Q454 -362 443 -370.5Q432 -379 432 -397Q432 -414 444 -425Q456 -436 478 -436Q507 -436 523 -415.5Q539 -395 539 -361Q539 -318 512 -292Q485 -266 443 -269Q450 -246 450 -214Q450 -150 420.5 -99.5Q391 -49 340 -20Q289 9 223 9Z"/><path id="n49" d="M356 -604V0H244V-604H25V-698H575V-604Z"/><path id="n6" d="M311 12Q252 12 205 -7Q158 -26 126 -61Q94 -96 77 -145.5Q60 -195 60 -257Q60 -319 77.5 -369Q95 -419 126.5 -454.5Q158 -490 203 -509Q248 -528 303 -528Q357 -528 401 -509.5Q445 -491 476 -457Q507 -423 523.5 -376Q540 -329 540 -272V-231H170V-214Q170 -153 208 -114.5Q246 -76 313 -76Q363 -76 398.5 -97.5Q434 -119 456 -155L524 -95Q498 -50 444.5 -19Q391 12 311 12ZM303 -445Q274 -445 249.5 -435Q225 -425 207.5 -406.5Q190 -388 180 -363Q170 -338 170 -308V-301H429V-311Q429 -372 394.5 -408.5Q360 -445 303 -445Z"/><path id="n27" d="M45 0 237 -262 53 -516H180L248 -418L302 -340H308L361 -418L429 -516H547L362 -266L556 0H428L351 -111L298 -187H292L240 -111L164 0Z"/><path id="n23" d="M331 0Q263 0 231 -36.5Q199 -73 199 -131V-428H40V-516H153Q182 -516 194 -527.5Q206 -539 206 -569V-698H308V-516H528V-428H308V-88H528V0Z"/><path id="a440" d="M919 158Q742 158 587.5 106.5Q433 55 315 -56.5Q197 -168 130.5 -346Q64 -524 64 -777Q64 -1091 167 -1314.5Q270 -1538 463.5 -1657Q657 -1776 928 -1776Q1186 -1776 1360.5 -1669Q1535 -1562 1623.5 -1361.5Q1712 -1161 1712 -882Q1712 -590 1623 -433.5Q1534 -277 1329 -277Q1182 -277 1112 -337.5Q1042 -398 1007 -491Q989 -400 940.5 -342.5Q892 -285 810 -285Q711 -285 644 -353.5Q577 -422 543.5 -533.5Q510 -645 510 -774Q510 -918 536.5 -1037.5Q563 -1157 626 -1228Q689 -1299 798 -1299Q870 -1299 917.5 -1260.5Q965 -1222 1002 -1159L1041 -1290H1267V-650Q1267 -572 1291 -538.5Q1315 -505 1356 -505Q1422 -505 1444 -600Q1466 -695 1466 -877Q1466 -1082 1417 -1229.5Q1368 -1377 1255.5 -1456.5Q1143 -1536 950 -1536Q655 -1536 502.5 -1339Q350 -1142 350 -774Q350 -427 509.5 -252.5Q669 -78 934 -78Q1041 -78 1200 -99L1231 127Q1054 158 919 158ZM903 -532Q949 -532 965.5 -579.5Q982 -627 982 -682V-1074Q920 -1074 884.5 -1049Q849 -1024 834.5 -961Q820 -898 820 -783Q820 -724 827 -666Q834 -608 852.5 -570Q871 -532 903 -532Z"/><path id="a123" d="M78 0V-1760H428V-1131H594V-1760H944V0H594V-798H428V0Z"/><path id="a1001" d="M243 0V-1356Q207 -1313 144 -1286.5Q81 -1260 25 -1260V-1541Q78 -1549 139 -1575.5Q200 -1602 252.5 -1648.5Q305 -1695 333 -1761H616V0Z"/><path id="a919" d="M503 16Q392 16 296 -22.5Q200 -61 141 -138Q82 -215 82 -329V-519H421V-483Q421 -439 425.5 -395Q430 -351 448.5 -322Q467 -293 509 -293Q568 -293 591 -325.5Q614 -358 614 -419V-772Q589 -726 539 -697Q489 -668 417 -668Q272 -668 193 -726.5Q114 -785 84 -901Q54 -1017 54 -1191Q54 -1367 97 -1498.5Q140 -1630 240.5 -1703Q341 -1776 513 -1776Q697 -1776 800 -1713.5Q903 -1651 945.5 -1525.5Q988 -1400 988 -1211V-735Q988 -552 972.5 -412Q957 -272 908 -177Q859 -82 762 -33Q665 16 503 16ZM521 -979Q614 -979 614 -1104V-1322Q614 -1452 526 -1452Q464 -1452 452 -1399.5Q440 -1347 440 -1265V-1123Q440 -979 521 -979Z"/><path id="a282" d="M229 0V-1422H20V-1760H790V-1422H581V0Z"/><path id="a255" d="M78 0V-1760H618Q753 -1760 822 -1698.5Q891 -1637 914.5 -1526.5Q938 -1416 938 -1267Q938 -1123 901.5 -1037Q865 -951 764 -918Q847 -901 880.5 -835.5Q914 -770 914 -666V0H567V-689Q567 -766 535.5 -784.5Q504 -803 434 -803V0ZM436 -1108H521Q594 -1108 594 -1267Q594 -1370 578 -1402Q562 -1434 518 -1434H436Z"/><path id="a1163" d="M529 16Q346 16 242.5 -46.5Q139 -109 96.5 -235Q54 -361 54 -549V-1025Q54 -1208 69.5 -1348Q85 -1488 134 -1583Q183 -1678 280 -1727Q377 -1776 539 -1776Q650 -1776 746 -1737.5Q842 -1699 901 -1622.5Q960 -1546 960 -1431V-1241H621V-1277Q621 -1321 616.5 -1365Q612 -1409 594 -1438Q576 -1467 533 -1467Q474 -1467 451 -1434.5Q428 -1402 428 -1341V-988Q453 -1035 503 -1063.5Q553 -1092 625 -1092Q771 -1092 849.5 -1033.5Q928 -975 958 -859Q988 -743 988 -569Q988 -393 945 -261.5Q902 -130 801.5 -57Q701 16 529 16ZM516 -308Q578 -308 590 -360.5Q602 -413 602 -495V-637Q602 -781 521 -781Q428 -781 428 -656V-438Q428 -308 516 -308Z"/><path id="a47" d="M488 16Q297 16 180.5 -103Q64 -222 64 -436V-1248Q64 -1504 165.5 -1640Q267 -1776 496 -1776Q621 -1776 718.5 -1730Q816 -1684 872 -1592.5Q928 -1501 928 -1362V-1058H578V-1318Q578 -1397 558 -1424.5Q538 -1452 496 -1452Q447 -1452 430 -1416.5Q413 -1381 413 -1322V-441Q413 -368 434.5 -338Q456 -308 496 -308Q541 -308 559.5 -345Q578 -382 578 -441V-758H932V-425Q932 -193 815 -88.5Q698 16 488 16Z"/><path id="a72" d="M78 0V-1760H782V-1420H436V-1077H768V-746H436V-343H805V0Z"/><path id="a1359" d="M506 16Q283 16 161.5 -109Q40 -234 40 -469V-1263Q40 -1511 155.5 -1643.5Q271 -1776 506 -1776Q742 -1776 857 -1643.5Q972 -1511 972 -1263V-469Q972 -234 851 -109Q730 16 506 16ZM506 -308Q547 -308 570 -345Q593 -382 593 -428V-1297Q593 -1359 579.5 -1405.5Q566 -1452 506 -1452Q446 -1452 432.5 -1405.5Q419 -1359 419 -1297V-428Q419 -382 442.5 -345Q466 -308 506 -308Z"/><path id="a1152" d="M145 -1Q161 -247 214 -461Q267 -675 336 -859.5Q405 -1044 469 -1198L567 -1435H70V-1761H958V-1569Q958 -1463 923 -1355Q888 -1247 831 -1117Q707 -835 633.5 -555.5Q560 -276 543 -1Z"/><path id="a685" d="M506 25Q303 25 174.5 -75.5Q46 -176 46 -384V-646H412V-495Q412 -448 417.5 -404Q423 -360 443 -332Q463 -304 506 -304Q563 -304 581 -342.5Q599 -381 599 -441V-787Q599 -830 593.5 -872Q588 -914 569 -942Q550 -970 508 -970Q408 -970 408 -825H85V-1761H924V-1431H419V-1183Q445 -1215 489.5 -1239.5Q534 -1264 594 -1264Q714 -1264 789.5 -1218Q865 -1172 905.5 -1090Q946 -1008 961.5 -900Q977 -792 977 -668Q977 -509 960.5 -381.5Q944 -254 895.5 -163Q847 -72 753.5 -23.5Q660 25 506 25Z"/><path id="a1172" d="M29 0 439 -1767H803L392 0Z"/><path id="a1222" d="M62 0V-84Q62 -215 102.5 -319.5Q143 -424 207 -513.5Q271 -603 342 -689Q411 -773 473.5 -861.5Q536 -950 575.5 -1053.5Q615 -1157 615 -1286Q615 -1348 596.5 -1392.5Q578 -1437 520 -1437Q432 -1437 432 -1280V-1065H62Q61 -1088 59.5 -1117Q58 -1146 58 -1173Q58 -1363 98 -1495.5Q138 -1628 239.5 -1697.5Q341 -1767 525 -1767Q744 -1767 865.5 -1644Q987 -1521 987 -1293Q987 -1138 947 -1021.5Q907 -905 841 -809.5Q775 -714 696 -619Q640 -552 587.5 -482Q535 -412 495 -332H975V0Z"/><path id="a190" d="M78 0V-1760H440L602 -917V-1760H942V0H598L422 -880V0Z"/><path id="a204" d="M498 16Q287 16 175.5 -111.5Q64 -239 64 -480V-1316Q64 -1542 174.5 -1659Q285 -1776 498 -1776Q711 -1776 821.5 -1659Q932 -1542 932 -1316V-480Q932 -239 820.5 -111.5Q709 16 498 16ZM501 -308Q581 -308 581 -463V-1322Q581 -1452 503 -1452Q415 -1452 415 -1319V-461Q415 -379 435 -343.5Q455 -308 501 -308Z"/><path id="a628" d="M506 19Q258 19 152 -123Q46 -265 46 -525V-642Q46 -776 78 -859Q110 -942 196 -986Q115 -1019 81 -1096.5Q47 -1174 47 -1289V-1335Q47 -1569 164.5 -1675.5Q282 -1782 506 -1782Q736 -1782 850 -1672.5Q964 -1563 964 -1321Q964 -1194 934 -1108Q904 -1022 815 -984Q910 -935 938 -855.5Q966 -776 966 -642V-525Q966 -265 860 -123Q754 19 506 19ZM506 -1134Q599 -1134 599 -1302Q599 -1358 579.5 -1408Q560 -1458 506 -1458Q452 -1458 432.5 -1408Q413 -1358 413 -1302Q413 -1134 506 -1134ZM506 -329Q602 -329 602 -484V-645Q602 -725 580.5 -770Q559 -815 506 -815Q451 -815 431 -770Q411 -725 411 -645V-484Q411 -329 506 -329Z"/><path id="a169" d="M78 0V-1760H430V-300H792V0Z"/><path id="a110" d="M441 16Q64 16 64 -524V-1283Q64 -1776 496 -1776Q674 -1776 769 -1704.5Q864 -1633 900 -1496Q936 -1359 936 -1162H592V-1318Q592 -1375 576.5 -1413.5Q561 -1452 512 -1452Q451 -1452 431.5 -1411Q412 -1370 412 -1321V-468Q412 -397 430.5 -352.5Q449 -308 503 -308Q559 -308 577.5 -352.5Q596 -397 596 -470V-721H502V-1025H932V0H791L731 -148Q639 16 441 16Z"/><path id="a1043" d="M660 0 1200 -1767H1524L983 0ZM433 -528Q247 -528 144.5 -642.5Q42 -757 42 -948V-1311Q42 -1513 139 -1621Q236 -1729 433 -1729Q630 -1729 727.5 -1621Q825 -1513 825 -1311V-948Q825 -757 722.5 -642.5Q620 -528 433 -528ZM433 -790Q472 -790 499 -818.5Q526 -847 526 -889V-1375Q526 -1434 509 -1468Q492 -1502 433 -1502Q375 -1502 357.5 -1467.5Q340 -1433 340 -1375V-889Q340 -847 367 -818.5Q394 -790 433 -790ZM1730 18Q1544 18 1441.5 -96.5Q1339 -211 1339 -402V-765Q1339 -967 1436 -1075Q1533 -1183 1730 -1183Q1927 -1183 2024.5 -1075Q2122 -967 2122 -765V-402Q2122 -211 2019.5 -96.5Q1917 18 1730 18ZM1730 -244Q1769 -244 1796 -272.5Q1823 -301 1823 -343V-829Q1823 -888 1806 -922Q1789 -956 1730 -956Q1672 -956 1654.5 -921.5Q1637 -887 1637 -829V-343Q1637 -301 1664 -272.5Q1691 -244 1730 -244Z"/><path id="a346" d="M291 0V-579L10 -1760H359L457 -1164L555 -1760H903L623 -579V0Z"/><path id="m21" d="M77 -68H228V-448H77V-516H308V-386H313Q329 -447 373.5 -481.5Q418 -516 487 -516H559V-436H462Q393 -436 350.5 -396Q308 -356 308 -291V-68H508V0H77Z"/><path id="m23" d="M325 0Q266 0 238.5 -33Q211 -66 211 -118V-448H39V-516H167Q193 -516 203.5 -526.5Q214 -537 214 -563V-698H291V-516H526V-448H291V-68H526V0Z"/><path id="m6" d="M309 12Q253 12 208.5 -7Q164 -26 132.5 -61.5Q101 -97 84 -146.5Q67 -196 67 -257Q67 -319 84.5 -369Q102 -419 133 -454.5Q164 -490 207.5 -509Q251 -528 304 -528Q356 -528 398.5 -509Q441 -490 471 -456.5Q501 -423 517 -377Q533 -331 533 -276V-238H151V-214Q151 -180 162 -151Q173 -122 193.5 -101Q214 -80 243.5 -68.5Q273 -57 309 -57Q361 -57 399 -81Q437 -105 457 -147L516 -107Q493 -55 439.5 -21.5Q386 12 309 12ZM304 -462Q271 -462 243 -450Q215 -438 194.5 -417Q174 -396 162.5 -367.5Q151 -339 151 -305V-298H447V-309Q447 -343 436.5 -371Q426 -399 407.5 -419.5Q389 -440 362.5 -451Q336 -462 304 -462Z"/><path id="m4" d="M318 12Q262 12 218.5 -7.5Q175 -27 145 -62Q115 -97 99.5 -147Q84 -197 84 -258Q84 -319 100 -369Q116 -419 146 -454.5Q176 -490 219 -509Q262 -528 317 -528Q392 -528 439 -495Q486 -462 508 -409L444 -375Q430 -415 397.5 -437Q365 -459 317 -459Q282 -459 254.5 -447.5Q227 -436 208 -415Q189 -394 179.5 -365Q170 -336 170 -302V-214Q170 -180 179.5 -151Q189 -122 208 -101Q227 -80 255 -68.5Q283 -57 319 -57Q371 -57 405 -81Q439 -105 459 -147L516 -108Q493 -56 444.5 -22Q396 12 318 12Z"/><path id="m11" d="M98 -740H178V-432H182Q190 -451 202 -468.5Q214 -486 231.5 -499Q249 -512 273 -520Q297 -528 329 -528Q410 -528 459 -476.5Q508 -425 508 -331V0H428V-317Q428 -388 397 -422.5Q366 -457 306 -457Q282 -457 259 -451Q236 -445 218 -433Q200 -421 189 -402Q178 -383 178 -358V0H98Z"/><path id="m73" d="M0 -267V-341H600V-267Z"/><path id="m1" d="M495 0Q448 0 428 -24Q408 -48 403 -84H398Q381 -39 343.5 -13.5Q306 12 243 12Q162 12 114 -30Q66 -72 66 -145Q66 -217 118.5 -256Q171 -295 288 -295H398V-346Q398 -403 366 -431.5Q334 -460 275 -460Q223 -460 190 -439.5Q157 -419 137 -384L83 -424Q93 -444 110 -463Q127 -482 152 -496.5Q177 -511 209 -519.5Q241 -528 280 -528Q371 -528 424.5 -482Q478 -436 478 -354V-70H550V0ZM257 -55Q288 -55 313.5 -62.5Q339 -70 358 -82.5Q377 -95 387.5 -112.5Q398 -130 398 -150V-235H288Q216 -235 183 -215Q150 -195 150 -157V-136Q150 -96 178.5 -75.5Q207 -55 257 -55Z"/><path id="m17" d="M98 0V-516H178V-432H182Q190 -451 202 -468.5Q214 -486 231.5 -499Q249 -512 273 -520Q297 -528 329 -528Q410 -528 459 -476.5Q508 -425 508 -331V0H428V-317Q428 -388 397 -422.5Q366 -457 306 -457Q282 -457 259 -451Q236 -445 218 -433Q200 -421 189 -402Q178 -383 178 -358V0Z"/><path id="m12" d="M332 -630Q297 -630 283 -644.5Q269 -659 269 -681V-697Q269 -719 283 -733.5Q297 -748 332 -748Q367 -748 381 -733.5Q395 -719 395 -697V-681Q395 -659 381 -644.5Q367 -630 332 -630ZM106 -68H292V-448H106V-516H372V-68H546V0H106Z"/><path id="m5" d="M425 -84H421Q371 12 262 12Q167 12 113.5 -59Q60 -130 60 -258Q60 -386 113.5 -457Q167 -528 262 -528Q371 -528 421 -432H425V-740H505V0H425ZM293 -59Q320 -59 344 -66Q368 -73 386 -86.5Q404 -100 414.5 -119.5Q425 -139 425 -165V-351Q425 -377 414.5 -396.5Q404 -416 386 -429.5Q368 -443 344 -450Q320 -457 293 -457Q223 -457 184.5 -414.5Q146 -372 146 -302V-214Q146 -144 184.5 -101.5Q223 -59 293 -59Z"/><path id="m19" d="M95 -516H175V-432H179Q229 -528 338 -528Q433 -528 486.5 -457Q540 -386 540 -258Q540 -130 486.5 -59Q433 12 338 12Q229 12 179 -84H175V200H95ZM307 -59Q377 -59 415.5 -101.5Q454 -144 454 -214V-302Q454 -372 415.5 -414.5Q377 -457 307 -457Q280 -457 256 -450Q232 -443 214 -429.5Q196 -416 185.5 -396.5Q175 -377 175 -351V-165Q175 -139 185.5 -119.5Q196 -100 214 -86.5Q232 -73 256 -66Q280 -59 307 -59Z"/><path id="m22" d="M306 12Q225 12 166.5 -15.5Q108 -43 67 -89L121 -136Q158 -97 202 -76Q246 -55 308 -55Q368 -55 406.5 -76.5Q445 -98 445 -144Q445 -164 437.5 -177.5Q430 -191 417 -199Q404 -207 388 -211.5Q372 -216 354 -219L273 -231Q246 -235 214.5 -242Q183 -249 157 -264.5Q131 -280 113.5 -306Q96 -332 96 -374Q96 -413 111.5 -441.5Q127 -470 155 -489.5Q183 -509 221 -518.5Q259 -528 304 -528Q374 -528 425.5 -506Q477 -484 514 -445L462 -396Q453 -407 439.5 -418.5Q426 -430 406.5 -439.5Q387 -449 361 -455Q335 -461 301 -461Q240 -461 207.5 -440Q175 -419 175 -379Q175 -359 182.5 -345.5Q190 -332 203 -324Q216 -316 232.5 -311.5Q249 -307 266 -304L347 -292Q375 -288 406 -281Q437 -274 463 -258.5Q489 -243 506.5 -217Q524 -191 524 -149Q524 -72 464.5 -30Q405 12 306 12Z"/><path id="m8" d="M561 59Q561 137 496 174.5Q431 212 301 212Q176 212 121.5 179Q67 146 67 84Q67 42 89 19Q111 -4 151 -15V-27Q129 -38 117 -55Q105 -72 105 -98Q105 -138 131.5 -158Q158 -178 198 -188V-192Q150 -213 123.5 -254Q97 -295 97 -350Q97 -389 111 -422Q125 -455 151.5 -478.5Q178 -502 215 -515Q252 -528 297 -528Q355 -528 399 -507V-516Q399 -546 413 -566Q427 -586 461 -586H556V-516H440V-481Q468 -457 483 -424Q498 -391 498 -350Q498 -311 483.5 -278Q469 -245 443 -221.5Q417 -198 379.5 -185Q342 -172 297 -172Q284 -172 272 -173Q260 -174 248 -176Q236 -174 223 -169.5Q210 -165 199 -157.5Q188 -150 181 -140Q174 -130 174 -117Q174 -94 197 -86.5Q220 -79 257 -79H371Q471 -79 516 -41.5Q561 -4 561 59ZM486 63Q486 32 461 13.5Q436 -5 374 -5H195Q143 16 143 65Q143 99 170 123.5Q197 148 260 148H338Q408 148 447 126.5Q486 105 486 63ZM297 -234Q357 -234 385.5 -262Q414 -290 414 -336V-365Q414 -411 385.5 -438.5Q357 -466 297 -466Q237 -466 209 -438.5Q181 -411 181 -365V-336Q181 -290 209 -262Q237 -234 297 -234Z"/><path id="m68" d="M217 12Q171 12 135.5 -3Q100 -18 75.5 -44.5Q51 -71 38 -106Q25 -141 25 -181Q25 -207 31 -235Q37 -263 52 -289.5Q67 -316 91.5 -340.5Q116 -365 154 -384Q126 -420 107.5 -458Q89 -496 89 -541Q89 -579 103.5 -610Q118 -641 142.5 -663.5Q167 -686 200 -698Q233 -710 270 -710Q303 -710 330.5 -700.5Q358 -691 379 -676Q400 -661 414.5 -642Q429 -623 436 -604L370 -570Q357 -601 331 -621.5Q305 -642 266 -642Q221 -642 194.5 -614.5Q168 -587 168 -544V-536Q168 -520 172 -505Q176 -490 184.5 -473.5Q193 -457 206.5 -438Q220 -419 239 -395L329 -284L402 -194H407Q414 -233 416 -283Q418 -333 420 -381H561V-314H486Q483 -290 480 -269Q477 -248 473 -228Q469 -208 464 -187.5Q459 -167 450 -144L572 0H477L390 -103H385Q371 -51 328 -19.5Q285 12 217 12ZM238 -59Q281 -59 314 -77Q347 -95 366 -127L192 -337Q146 -308 127 -271.5Q108 -235 108 -192V-177Q108 -123 144 -91Q180 -59 238 -59Z"/><path id="m24" d="M422 -84H418Q410 -65 398 -47.5Q386 -30 368.5 -17Q351 -4 327 4Q303 12 271 12Q190 12 141 -39.5Q92 -91 92 -185V-516H172V-199Q172 -128 203 -93.5Q234 -59 294 -59Q318 -59 341 -65Q364 -71 382 -83Q400 -95 411 -113.5Q422 -132 422 -158V-516H502V0H422Z"/><path id="m18" d="M300 12Q246 12 202.5 -7Q159 -26 128.5 -61.5Q98 -97 82 -146.5Q66 -196 66 -258Q66 -319 82 -369Q98 -419 128.5 -454.5Q159 -490 202.5 -509Q246 -528 300 -528Q354 -528 397.5 -509Q441 -490 471.5 -454.5Q502 -419 518 -369Q534 -319 534 -258Q534 -196 518 -146.5Q502 -97 471.5 -61.5Q441 -26 397.5 -7Q354 12 300 12ZM300 -57Q367 -57 408 -97Q449 -137 449 -221V-295Q449 -379 408 -419Q367 -459 300 -459Q233 -459 192 -419Q151 -379 151 -295V-221Q151 -137 192 -97Q233 -57 300 -57Z"/><path id="m31" d="M88 -698H325Q415 -698 466 -649Q517 -600 517 -518Q517 -455 486.5 -419Q456 -383 408 -368V-365Q467 -351 505 -312.5Q543 -274 543 -201Q543 -159 529 -122Q515 -85 489.5 -58Q464 -31 429.5 -15.5Q395 0 355 0H88ZM330 -73Q388 -73 421 -99Q454 -125 454 -179V-220Q454 -273 421 -299.5Q388 -326 330 -326H172V-73ZM316 -395Q369 -395 399 -418.5Q429 -442 429 -490V-529Q429 -577 399 -601Q369 -625 316 -625H172V-395Z"/><path id="m78" d="M257 -136H386L271 141H204Z"/><path id="m7" d="M83 -68H257V-448H73V-516H257V-622Q257 -674 284.5 -707Q312 -740 371 -740H544V-672H337V-516H544V-448H337V-68H521V0H83Z"/><path id="m26" d="M30 -516H101L160 -70H169L257 -516H345L433 -70H442L501 -516H570L491 0H387L305 -432H297L213 0H109Z"/><path id="m14" d="M105 -740H185V-273H189L279 -358L451 -516H549L335 -314L574 0H475L274 -268L185 -187V0H105Z"/><path id="m16" d="M54 0V-516H128V-456H132Q144 -486 166 -507Q188 -528 231 -528Q276 -528 298 -505.5Q320 -483 325 -447H328Q342 -482 368 -505Q394 -528 440 -528Q503 -528 524.5 -484Q546 -440 546 -358V0H472V-345Q472 -411 458.5 -436.5Q445 -462 409 -462Q377 -462 357 -441.5Q337 -421 337 -379V0H263V-345Q263 -411 249.5 -436.5Q236 -462 201 -462Q169 -462 148.5 -441.5Q128 -421 128 -379V0Z"/><path id="m33" d="M95 -698H290Q418 -698 481 -610Q544 -522 544 -349Q544 -176 481 -88Q418 0 290 0H95ZM286 -73Q370 -73 412.5 -131Q455 -189 455 -295V-403Q455 -509 412.5 -567Q370 -625 286 -625H179V-73Z"/><path id="m48" d="M298 12Q204 12 144 -22.5Q84 -57 45 -111L106 -161Q147 -110 192.5 -85Q238 -60 301 -60Q377 -60 417 -95Q457 -130 457 -193Q457 -244 428 -272.5Q399 -301 327 -313L249 -326Q198 -335 163.5 -353Q129 -371 108 -396.5Q87 -422 78 -452.5Q69 -483 69 -516Q69 -612 132 -661Q195 -710 302 -710Q386 -710 443.5 -682Q501 -654 536 -603L477 -552Q448 -590 407 -614Q366 -638 301 -638Q230 -638 192 -608Q154 -578 154 -518Q154 -471 182.5 -441.5Q211 -412 285 -399L360 -386Q411 -377 446 -359Q481 -341 502.5 -316Q524 -291 533 -260Q542 -229 542 -195Q542 -98 478.5 -43Q415 12 298 12Z"/><path id="m36" d="M444 -93H439Q430 -73 418 -54Q406 -35 387.5 -20.5Q369 -6 343 3Q317 12 281 12Q167 12 111.5 -80Q56 -172 56 -344Q56 -524 117 -617Q178 -710 305 -710Q354 -710 390 -697Q426 -684 451.5 -662Q477 -640 494 -612.5Q511 -585 522 -557L450 -524Q441 -547 429.5 -567.5Q418 -588 401.5 -603.5Q385 -619 362 -628Q339 -637 308 -637Q224 -637 184.5 -574Q145 -511 145 -406V-298Q145 -245 153 -201.5Q161 -158 179.5 -126Q198 -94 227.5 -76.5Q257 -59 300 -59Q368 -59 406 -100Q444 -141 444 -206V-278H297V-345H522V0H444Z"/><path id="m43" d="M163 -588H156V0H80V-698H199L437 -110H444V-698H520V0H401Z"/><path id="m129" d="M300 -256 137 -93 88 -142 251 -305 88 -468 137 -517 300 -354 463 -517 512 -468 349 -305 512 -142 463 -93Z"/><path id="m60" d="M537 0H71V-86L304 -296Q355 -342 388 -390.5Q421 -439 421 -493V-505Q421 -568 388 -602.5Q355 -637 290 -637Q226 -637 191.5 -604.5Q157 -572 140 -518L65 -546Q75 -577 92.5 -606.5Q110 -636 137 -659Q164 -682 202.5 -696Q241 -710 292 -710Q344 -710 384.5 -695Q425 -680 452.5 -653Q480 -626 494.5 -589Q509 -552 509 -508Q509 -468 497.5 -433Q486 -398 465.5 -366Q445 -334 416.5 -303.5Q388 -273 353 -243L158 -73H537Z"/><path id="m56" d="M300 12Q236 12 190 -12.5Q144 -37 114 -83Q84 -129 70 -196Q56 -263 56 -349Q56 -434 70 -501.5Q84 -569 114 -615Q144 -661 190 -685.5Q236 -710 300 -710Q364 -710 410 -685.5Q456 -661 486 -615Q516 -569 530 -501.5Q544 -434 544 -349Q544 -263 530 -196Q516 -129 486 -83Q456 -37 410 -12.5Q364 12 300 12ZM300 -61Q342 -61 372 -77.5Q402 -94 420.5 -124Q439 -154 448 -196.5Q457 -239 457 -292V-406Q457 -458 448 -501Q439 -544 420.5 -574Q402 -604 372 -620.5Q342 -637 300 -637Q258 -637 228 -620.5Q198 -604 179.5 -574Q161 -544 152 -501Q143 -458 143 -406V-292Q143 -239 152 -196.5Q161 -154 179.5 -124Q198 -94 228 -77.5Q258 -61 300 -61ZM300 -290Q265 -290 251.5 -304Q238 -318 238 -338V-360Q238 -380 251.5 -394Q265 -408 300 -408Q335 -408 348.5 -394Q362 -380 362 -360V-338Q362 -318 348.5 -304Q335 -290 300 -290Z"/><path id="m59" d="M85 0V-73H285V-636H278L102 -472L53 -525L238 -698H369V-73H553V0Z"/><path id="m62" d="M378 0V-137H34V-211L336 -698H458V-206H562V-137H458V0ZM109 -206H378V-633H374Z"/></defs>
</svg>